<svg width="100" height="100" viewBox="0 0 100 100" fill="none" xmlns="http://www.w3.org/2000/svg">
<g clip-path="url(#clip0_3:17)">
<path fill-rule="evenodd" clip-rule="evenodd" d="M46.1521 16.0388C44.676 16.2347 43.7104 16.8796 43.3103 17.9366C42.9729 18.828 42.9855 18.4524 42.9767 27.9003L42.9686 36.6483L41.3145 37.1944C34.1572 39.5568 29.7627 42.4146 28.1711 45.7414C27.6037 46.9275 27.4124 48.0095 27.4823 49.6367C27.6784 54.2071 29.2829 57.6135 32.5444 60.3842C36.4013 63.6606 42.5626 65.7903 50.8024 66.6952C53.8793 67.033 56.3858 67.1582 60.0718 67.1581C64.0263 67.158 66.3382 67.0358 69.9967 66.6335C77.2162 65.8395 84.0516 64.2462 89.7527 62.0286C90.3192 61.8082 90.8529 61.5972 90.9387 61.5598C91.0245 61.5223 91.1228 61.4874 91.1572 61.4823C91.1915 61.4771 91.3881 61.395 91.5941 61.2996C91.8001 61.2043 92.39 60.9353 92.9049 60.7017C95.7414 59.4152 98.6043 57.6474 100.557 55.9769C104.201 52.8586 105.934 49.4588 105.665 45.9539C105.462 43.2909 103.872 41.1083 100.726 39.1705C98.31 37.6822 94.2479 36.2005 90.0717 35.2841L89.111 35.0733L89.1464 33.1911C89.1852 31.1274 89.1083 27.0722 89.0036 25.6626C88.8602 23.7315 88.6547 22.4221 88.3823 21.7035C88.226 21.291 87.9285 20.9978 87.1774 20.5157C85.9263 19.7128 84.7029 19.2704 83.0345 19.0177C82.0505 18.8687 79.3674 18.8812 76.6444 19.0475C73.5891 19.234 71.8782 19.27 69.9654 19.1879C65.355 18.99 62.405 18.5737 57.0528 17.3655C53.5384 16.5722 52.2009 16.3312 50.1782 16.1271C49.0044 16.0086 46.7517 15.9592 46.1521 16.0388ZM44.225 45.589C49.2215 47.5545 54.5998 49.0926 59.1355 49.853C63.4406 50.5747 66.6216 50.6373 71.4947 50.0963C76.2132 49.5724 82.8106 48.2034 88.0283 46.6656C88.5391 46.515 88.9678 46.4026 88.981 46.4157C88.9943 46.4288 89.0274 46.6672 89.0546 46.9455L89.1041 47.4516L88.5701 47.8428C86.7423 49.182 83.8432 50.783 81.3572 51.826C73.9107 54.9502 65.8816 55.7495 58.168 54.1344C52.876 53.0264 47.4309 50.6642 43.5136 47.7771L42.9387 47.3534L42.938 46.2272C42.9377 45.6078 42.948 45.101 42.9609 45.101C42.9739 45.101 43.5427 45.3206 44.225 45.589ZM17.007 59.613C17.2035 59.9346 18.1316 61.3781 19.6388 63.7064C20.6056 65.1998 23.7946 70.1286 26.7254 74.6595L32.0543 82.8972L31.5785 83.3397C30.5532 84.2933 29.1725 85.9077 28.3673 87.0946C27.455 88.4394 26.9893 89.4358 26.5215 91.0436C25.8258 93.4348 23.5 99.5 23.4901 102.429C23.4591 111.576 38.1688 115.826 71.4947 115.826C104.821 115.826 118.633 118.554 116.847 102.429C116.833 102.302 116.809 102.105 116.809 102.105C116.407 98.7464 115.42 94.9854 114.005 91.4139C112.551 87.7476 110.98 85.082 108.604 82.2501C107.393 80.8066 104.724 78.2883 104.527 78.403C104.437 78.4553 92.8228 86.4098 92.2559 86.8073C92.0363 86.9613 91.8678 87.0559 91.8814 87.0177C91.895 86.9794 96.7132 81.3716 102.588 74.5559C108.464 67.7402 113.281 62.1359 113.293 62.102C113.315 62.0447 108.987 61.9137 100.271 61.7077C98.76 61.672 96.3443 61.611 94.9024 61.5722L92.2807 61.5015L91.3756 61.8852C89.2948 62.7673 86.5218 63.7287 84.0724 64.4172C82.566 64.8408 79.0566 65.7108 78.8519 65.7115C78.7363 65.7119 78.713 65.7589 78.6762 66.0668C78.5363 67.2363 77.9965 69.321 77.5377 70.4636C75.9901 74.3174 73.3486 76.8043 69.8406 77.71C68.6516 78.0171 68.1415 78.0785 66.782 78.0785C65.2984 78.0785 64.742 77.9982 63.5689 77.6147C60.3506 76.5625 57.8017 74.0767 56.4165 70.6394C56.1305 69.9297 55.828 68.8282 55.7667 68.2729C55.6821 67.5068 55.7654 67.5805 54.934 67.5348C54.5327 67.5128 54.0871 67.4723 53.9439 67.4449L53.6834 67.3951L53.1761 68.2043C51.4217 71.0027 49.4633 73.0962 47.4941 74.2785C45.839 75.2723 43.9355 75.6175 42.3384 75.2137C40.3809 74.7187 38.5878 72.6196 37.2265 69.2294C36.6413 67.7718 35.94 65.4989 35.5633 63.839L35.358 62.9346L34.7919 62.6006C33.7363 61.9779 32.0703 60.7242 31.5685 60.175L31.3417 59.9268L24.9208 59.7658C21.3893 59.6772 18.1527 59.5881 17.7283 59.5678C17.0948 59.5374 16.9657 59.5455 17.007 59.613Z" fill="white"/>
</g>
<defs>
<clipPath id="clip0_3:17">
<rect width="100" height="100" fill="white"/>
</clipPath>
</defs>
</svg>
